<svg xmlns="http://www.w3.org/2000/svg" viewBox="0 0 1600 1000" role="img" aria-label="Park outdoor pool illustration">
  <defs><linearGradient id="o" x1="0" y1="0" x2="1" y2="1"><stop stop-color="#134e4a"/><stop offset=".52" stop-color="#047857"/><stop offset="1" stop-color="#0369a1"/></linearGradient></defs>
  <rect width="1600" height="1000" fill="url(#o)"/>
  <path d="M0 680c260-120 480-120 705-30 270 108 512 64 895-105v455H0z" fill="#064e3b" opacity=".72"/>
  <rect x="330" y="290" width="940" height="420" rx="44" fill="#e5e7eb"/>
  <rect x="390" y="350" width="820" height="300" rx="28" fill="#22d3ee"/>
  <path d="M475 350v300M650 350v300M825 350v300M1000 350v300" stroke="#e0f2fe" stroke-width="8" opacity=".55"/>
  <path d="M1180 250v210c0 45-34 70-78 70h-36" stroke="#f8fafc" stroke-width="24" fill="none" stroke-linecap="round"/>
  <g fill="#fef3c7"><circle cx="230" cy="315" r="72" opacity=".28"/><path d="M205 392h50v220h-50z" opacity=".78"/></g>
</svg>
