<svg xmlns="http://www.w3.org/2000/svg" viewBox="0 0 1600 1000" role="img" aria-label="Scenic road trip illustration">
  <defs><linearGradient id="r" x1="0" y1="0" x2="1" y2="1"><stop stop-color="#164e63"/><stop offset=".52" stop-color="#0f766e"/><stop offset="1" stop-color="#0f172a"/></linearGradient></defs>
  <rect width="1600" height="1000" fill="url(#r)"/>
  <path d="M0 500l220-150 210 120 250-210 260 230 250-170 410 270v410H0z" fill="#064e3b" opacity=".85"/>
  <path d="M0 930c235-160 375-145 530-225 170-88 175-230 345-250 190-22 300 145 725 15" stroke="#f8fafc" stroke-width="140" fill="none" stroke-linecap="round" opacity=".85"/>
  <path d="M0 930c235-160 375-145 530-225 170-88 175-230 345-250 190-22 300 145 725 15" stroke="#334155" stroke-width="82" fill="none" stroke-linecap="round" opacity=".9"/>
  <path d="M0 930c235-160 375-145 530-225 170-88 175-230 345-250 190-22 300 145 725 15" stroke="#fbbf24" stroke-width="10" stroke-dasharray="44 42" fill="none" stroke-linecap="round" opacity=".9"/>
  <circle cx="240" cy="170" r="110" fill="#fde68a" opacity=".25"/>
</svg>
